<svg xmlns="http://www.w3.org/2000/svg" width="759.5284423828125" height="748.174072265625" viewBox="-283.8602600097656 -288.0138244628906 759.5284423828125 748.174072265625"><title>Neo4j Graph Visualization</title><desc>Created using Neo4j (http://www.neo4j.com/)</desc><g class="layer relationships"><g class="relationship" transform="translate(181.22544556598382 -81.84558633262439) rotate(300.16457326457487)"><path class="outline" fill="#A5ABB6" stroke="none" d="M 25 0.5 L 61.71820487059972 0.5 L 61.71820487059972 -0.5 L 25 -0.5 Z M 99.71820487059972 0.5 L 136.43640974119944 0.5 L 136.43640974119944 3.5 L 143.43640974119944 0 L 136.43640974119944 -3.5 L 136.43640974119944 -0.5 L 99.71820487059972 -0.5 Z"/><text text-anchor="middle" pointer-events="none" font-size="8px" fill="#000000" x="80.71820487059972" y="3" font-family="sans-serif">个人属性</text></g><g class="relationship" transform="translate(119.44505721818571 262.1919636617924) rotate(441.5176712229656)"><path class="outline" fill="#A5ABB6" stroke="none" d="M 25 0.5 L 62.91850594839504 0.5 L 62.91850594839504 -0.5 L 25 -0.5 Z M 100.91850594839504 0.5 L 138.83701189679007 0.5 L 138.83701189679007 3.5 L 145.83701189679007 0 L 138.83701189679007 -3.5 L 138.83701189679007 -0.5 L 100.91850594839504 -0.5 Z"/><text text-anchor="middle" pointer-events="none" font-size="8px" fill="#000000" x="81.91850594839504" y="3" font-family="sans-serif">个人属性</text></g><g class="relationship" transform="translate(180.49447316985587 248.3758531647937) rotate(420.8294718626288)"><path class="outline" fill="#A5ABB6" stroke="none" d="M 25 0.5 L 63.23745894131065 0.5 L 63.23745894131065 -0.5 L 25 -0.5 Z M 101.23745894131065 0.5 L 139.4749178826213 0.5 L 139.4749178826213 3.5 L 146.4749178826213 0 L 139.4749178826213 -3.5 L 139.4749178826213 -0.5 L 101.23745894131065 -0.5 Z"/><text text-anchor="middle" pointer-events="none" font-size="8px" fill="#000000" x="82.23745894131065" y="3" font-family="sans-serif">个人属性</text></g><g class="relationship" transform="translate(90.96085095314456 83.03561128865232) rotate(413.2772300635121)"><path class="outline" fill="#A5ABB6" stroke="none" d="M 25 0.5 L 38.46572757235348 0.5 L 38.46572757235348 -0.5 L 25 -0.5 Z M 64.46572757235347 0.5 L 77.93145514470696 0.5 L 77.93145514470696 3.5 L 84.93145514470696 0 L 77.93145514470696 -3.5 L 77.93145514470696 -0.5 L 64.46572757235347 -0.5 Z"/><text text-anchor="middle" pointer-events="none" font-size="8px" fill="#000000" x="51.46572757235348" y="3" font-family="sans-serif">email</text></g><g class="relationship" transform="translate(90.96085095314456 83.03561128865232) rotate(526.5038991415918)"><path class="outline" fill="#A5ABB6" stroke="none" d="M 25 0.5 L 77.27667804064113 0.5 L 77.27667804064113 -0.5 L 25 -0.5 Z M 103.27667804064113 0.5 L 155.55335608128226 0.5 L 155.55335608128226 3.5 L 162.55335608128226 0 L 155.55335608128226 -3.5 L 155.55335608128226 -0.5 L 103.27667804064113 -0.5 Z"/><text text-anchor="middle" pointer-events="none" font-size="8px" fill="#000000" x="90.27667804064113" y="3" transform="rotate(180 90.27667804064113 0)" font-family="sans-serif">email</text></g><g class="relationship" transform="translate(90.96085095314456 83.03561128865232) rotate(481.01625976183493)"><path class="outline" fill="#A5ABB6" stroke="none" d="M 25 0.5 L 78.34795446831562 0.5 L 78.34795446831562 -0.5 L 25 -0.5 Z M 104.34795446831562 0.5 L 157.69590893663124 0.5 L 157.69590893663124 3.5 L 164.69590893663124 0 L 157.69590893663124 -3.5 L 157.69590893663124 -0.5 L 104.34795446831562 -0.5 Z"/><text text-anchor="middle" pointer-events="none" font-size="8px" fill="#000000" x="91.34795446831562" y="3" transform="rotate(180 91.34795446831562 0)" font-family="sans-serif">email</text></g><g class="relationship" transform="translate(90.96085095314456 83.03561128865232) rotate(459.9406015946189)"><path class="outline" fill="#A5ABB6" stroke="none" d="M 25 0.5 L 75.08141832446358 0.5 L 75.08141832446358 -0.5 L 25 -0.5 Z M 101.08141832446358 0.5 L 151.16283664892717 0.5 L 151.16283664892717 3.5 L 158.16283664892717 0 L 151.16283664892717 -3.5 L 151.16283664892717 -0.5 L 101.08141832446358 -0.5 Z"/><text text-anchor="middle" pointer-events="none" font-size="8px" fill="#000000" x="88.08141832446358" y="3" transform="rotate(180 88.08141832446358 0)" font-family="sans-serif">email</text></g><g class="relationship" transform="translate(90.96085095314456 83.03561128865232) rotate(440.9661132452268)"><path class="outline" fill="#A5ABB6" stroke="none" d="M 25 0.5 L 74.2032918396545 0.5 L 74.2032918396545 -0.5 L 25 -0.5 Z M 100.2032918396545 0.5 L 149.406583679309 0.5 L 149.406583679309 3.5 L 156.406583679309 0 L 149.406583679309 -3.5 L 149.406583679309 -0.5 L 100.2032918396545 -0.5 Z"/><text text-anchor="middle" pointer-events="none" font-size="8px" fill="#000000" x="87.2032918396545" y="3" font-family="sans-serif">email</text></g><g class="relationship" transform="translate(90.96085095314456 83.03561128865232) rotate(421.5639508753204)"><path class="outline" fill="#A5ABB6" stroke="none" d="M 25 0.5 L 77.51285163596746 0.5 L 77.51285163596746 -0.5 L 25 -0.5 Z M 103.51285163596746 0.5 L 156.02570327193493 0.5 L 156.02570327193493 3.5 L 163.02570327193493 0 L 156.02570327193493 -3.5 L 156.02570327193493 -0.5 L 103.51285163596746 -0.5 Z"/><text text-anchor="middle" pointer-events="none" font-size="8px" fill="#000000" x="90.51285163596746" y="3" font-family="sans-serif">email</text></g><g class="relationship" transform="translate(90.96085095314456 83.03561128865232) rotate(402.06658150171006)"><path class="outline" fill="#A5ABB6" stroke="none" d="M 25 0.5 L 75.66819417586888 0.5 L 75.66819417586888 -0.5 L 25 -0.5 Z M 101.66819417586888 0.5 L 152.33638835173775 0.5 L 152.33638835173775 3.5 L 159.33638835173775 0 L 152.33638835173775 -3.5 L 152.33638835173775 -0.5 L 101.66819417586888 -0.5 Z"/><text text-anchor="middle" pointer-events="none" font-size="8px" fill="#000000" x="88.66819417586888" y="3" font-family="sans-serif">email</text></g><g class="relationship" transform="translate(90.96085095314456 83.03561128865232) rotate(253.6976221265727)"><path class="outline" fill="#A5ABB6" stroke="none" d="M 25 0.5 L 73.44375871787244 0.5 L 73.44375871787244 -0.5 L 25 -0.5 Z M 99.44375871787244 0.5 L 147.88751743574488 0.5 L 147.88751743574488 3.5 L 154.88751743574488 0 L 147.88751743574488 -3.5 L 147.88751743574488 -0.5 L 99.44375871787244 -0.5 Z"/><text text-anchor="middle" pointer-events="none" font-size="8px" fill="#000000" x="86.44375871787244" y="3" transform="rotate(180 86.44375871787244 0)" font-family="sans-serif">email</text></g><g class="relationship" transform="translate(90.96085095314456 83.03561128865232) rotate(189.27635271502436)"><path class="outline" fill="#A5ABB6" stroke="none" d="M 25 0.5 L 74.66619864866635 0.5 L 74.66619864866635 -0.5 L 25 -0.5 Z M 100.66619864866635 0.5 L 150.3323972973327 0.5 L 150.3323972973327 3.5 L 157.3323972973327 0 L 150.3323972973327 -3.5 L 150.3323972973327 -0.5 L 100.66619864866635 -0.5 Z"/><text text-anchor="middle" pointer-events="none" font-size="8px" fill="#000000" x="87.66619864866635" y="3" transform="rotate(180 87.66619864866635 0)" font-family="sans-serif">email</text></g><g class="relationship" transform="translate(90.96085095314456 83.03561128865232) rotate(321.80135570705977)"><path class="outline" fill="#A5ABB6" stroke="none" d="M 25 0.5 L 75.22169450002318 0.5 L 75.22169450002318 -0.5 L 25 -0.5 Z M 101.22169450002318 0.5 L 151.44338900004635 0.5 L 151.44338900004635 3.5 L 158.44338900004635 0 L 151.44338900004635 -3.5 L 151.44338900004635 -0.5 L 101.22169450002318 -0.5 Z"/><text text-anchor="middle" pointer-events="none" font-size="8px" fill="#000000" x="88.22169450002318" y="3" font-family="sans-serif">email</text></g><g class="relationship" transform="translate(90.96085095314456 83.03561128865232) rotate(301.2520663030075)"><path class="outline" fill="#A5ABB6" stroke="none" d="M 25 0.5 L 35.92693361113204 0.5 L 35.92693361113204 -0.5 L 25 -0.5 Z M 73.92693361113204 0.5 L 84.85386722226409 0.5 L 84.85386722226409 3.5 L 91.85386722226409 0 L 84.85386722226409 -3.5 L 84.85386722226409 -0.5 L 73.92693361113204 -0.5 Z"/><text text-anchor="middle" pointer-events="none" font-size="8px" fill="#000000" x="54.92693361113204" y="3" font-family="sans-serif">个人属性</text></g><g class="relationship" transform="translate(90.96085095314456 83.03561128865232) rotate(222.418867323558)"><path class="outline" fill="#A5ABB6" stroke="none" d="M 25 0.5 L 80.5029876691184 0.5 L 80.5029876691184 -0.5 L 25 -0.5 Z M 106.5029876691184 0.5 L 162.0059753382368 0.5 L 162.0059753382368 3.5 L 169.0059753382368 0 L 162.0059753382368 -3.5 L 162.0059753382368 -0.5 L 106.5029876691184 -0.5 Z"/><text text-anchor="middle" pointer-events="none" font-size="8px" fill="#000000" x="93.5029876691184" y="3" transform="rotate(180 93.5029876691184 0)" font-family="sans-serif">email</text></g><g class="relationship" transform="translate(90.96085095314456 83.03561128865232) rotate(342.3784061269922)"><path class="outline" fill="#A5ABB6" stroke="none" d="M 25 0.5 L 74.23949678497767 0.5 L 74.23949678497767 -0.5 L 25 -0.5 Z M 100.23949678497767 0.5 L 149.47899356995535 0.5 L 149.47899356995535 3.5 L 156.47899356995535 0 L 149.47899356995535 -3.5 L 149.47899356995535 -0.5 L 100.23949678497767 -0.5 Z"/><text text-anchor="middle" pointer-events="none" font-size="8px" fill="#000000" x="87.23949678497767" y="3" font-family="sans-serif">email</text></g><g class="relationship" transform="translate(90.96085095314456 83.03561128865232) rotate(520.4514774804113)"><path class="outline" fill="#A5ABB6" stroke="none" d="M 25 0.5 L 36.09666909392649 0.5 L 36.09666909392649 -0.5 L 25 -0.5 Z M 74.0966690939265 0.5 L 85.19333818785297 0.5 L 85.19333818785297 3.5 L 92.19333818785297 0 L 85.19333818785297 -3.5 L 85.19333818785297 -0.5 L 74.0966690939265 -0.5 Z"/><text text-anchor="middle" pointer-events="none" font-size="8px" fill="#000000" x="55.09666909392649" y="3" transform="rotate(180 55.09666909392649 0)" font-family="sans-serif">个人属性</text></g><g class="relationship" transform="translate(90.96085095314456 83.03561128865232) rotate(362.77001382450396)"><path class="outline" fill="#A5ABB6" stroke="none" d="M 25 0.5 L 76.97066338633917 0.5 L 76.97066338633917 -0.5 L 25 -0.5 Z M 102.97066338633917 0.5 L 154.94132677267834 0.5 L 154.94132677267834 3.5 L 161.94132677267834 0 L 154.94132677267834 -3.5 L 154.94132677267834 -0.5 L 102.97066338633917 -0.5 Z"/><text text-anchor="middle" pointer-events="none" font-size="8px" fill="#000000" x="89.97066338633917" y="3" font-family="sans-serif">email</text></g><g class="relationship" transform="translate(90.96085095314456 83.03561128865232) rotate(357.9606940788457)"><path class="outline" fill="#A5ABB6" stroke="none" d="M 25 0.5 L 33.181388733610326 0.5 L 33.181388733610326 -0.5 L 25 -0.5 Z M 71.18138873361033 0.5 L 79.36277746722065 0.5 L 79.36277746722065 3.5 L 86.36277746722065 0 L 79.36277746722065 -3.5 L 79.36277746722065 -0.5 L 71.18138873361033 -0.5 Z"/><text text-anchor="middle" pointer-events="none" font-size="8px" fill="#000000" x="52.181388733610326" y="3" font-family="sans-serif">个人属性</text></g><g class="relationship" transform="translate(90.96085095314456 83.03561128865232) rotate(382.55559452080854)"><path class="outline" fill="#A5ABB6" stroke="none" d="M 25 0.5 L 75.56735560642373 0.5 L 75.56735560642373 -0.5 L 25 -0.5 Z M 101.56735560642373 0.5 L 152.13471121284746 0.5 L 152.13471121284746 3.5 L 159.13471121284746 0 L 152.13471121284746 -3.5 L 152.13471121284746 -0.5 L 101.56735560642373 -0.5 Z"/><text text-anchor="middle" pointer-events="none" font-size="8px" fill="#000000" x="88.56735560642373" y="3" font-family="sans-serif">email</text></g><g class="relationship" transform="translate(90.96085095314456 83.03561128865232) rotate(503.6650559643249)"><path class="outline" fill="#A5ABB6" stroke="none" d="M 25 0.5 L 77.23205477672475 0.5 L 77.23205477672475 -0.5 L 25 -0.5 Z M 103.23205477672475 0.5 L 155.4641095534495 0.5 L 155.4641095534495 3.5 L 162.4641095534495 0 L 155.4641095534495 -3.5 L 155.4641095534495 -0.5 L 103.23205477672475 -0.5 Z"/><text text-anchor="middle" pointer-events="none" font-size="8px" fill="#000000" x="90.23205477672475" y="3" transform="rotate(180 90.23205477672475 0)" font-family="sans-serif">email</text></g><g class="relationship" transform="translate(90.96085095314456 83.03561128865232) rotate(242.4530356182563)"><path class="outline" fill="#A5ABB6" stroke="none" d="M 25 0.5 L 35.879610145452276 0.5 L 35.879610145452276 -0.5 L 25 -0.5 Z M 73.87961014545228 0.5 L 84.75922029090455 0.5 L 84.75922029090455 3.5 L 91.75922029090455 0 L 84.75922029090455 -3.5 L 84.75922029090455 -0.5 L 73.87961014545228 -0.5 Z"/><text text-anchor="middle" pointer-events="none" font-size="8px" fill="#000000" x="54.879610145452276" y="3" transform="rotate(180 54.879610145452276 0)" font-family="sans-serif">个人属性</text></g><g class="relationship" transform="translate(90.96085095314456 83.03561128865232) rotate(298.6986032076336)"><path class="outline" fill="#A5ABB6" stroke="none" d="M 25 0.5 L 77.48604466840638 0.5 L 77.48604466840638 -0.5 L 25 -0.5 Z M 103.48604466840638 0.5 L 155.97208933681276 0.5 L 155.97208933681276 3.5 L 162.97208933681276 0 L 155.97208933681276 -3.5 L 155.97208933681276 -0.5 L 103.48604466840638 -0.5 Z"/><text text-anchor="middle" pointer-events="none" font-size="8px" fill="#000000" x="90.48604466840638" y="3" font-family="sans-serif">email</text></g><g class="relationship" transform="translate(90.96085095314456 83.03561128865232) rotate(205.79166031935347)"><path class="outline" fill="#A5ABB6" stroke="none" d="M 25 0.5 L 39.39807015449702 0.5 L 39.39807015449702 -0.5 L 25 -0.5 Z M 77.39807015449702 0.5 L 91.79614030899404 0.5 L 91.79614030899404 3.5 L 98.79614030899404 0 L 91.79614030899404 -3.5 L 91.79614030899404 -0.5 L 77.39807015449702 -0.5 Z"/><text text-anchor="middle" pointer-events="none" font-size="8px" fill="#000000" x="58.39807015449702" y="3" transform="rotate(180 58.39807015449702 0)" font-family="sans-serif">个人属性</text></g><g class="relationship" transform="translate(90.96085095314456 83.03561128865232) rotate(276.2905650241414)"><path class="outline" fill="#A5ABB6" stroke="none" d="M 25 0.5 L 72.94266791562946 0.5 L 72.94266791562946 -0.5 L 25 -0.5 Z M 98.94266791562946 0.5 L 146.8853358312589 0.5 L 146.8853358312589 3.5 L 153.8853358312589 0 L 146.8853358312589 -3.5 L 146.8853358312589 -0.5 L 98.94266791562946 -0.5 Z"/><text text-anchor="middle" pointer-events="none" font-size="8px" fill="#000000" x="85.94266791562946" y="3" font-family="sans-serif">email</text></g><g class="relationship" transform="translate(90.96085095314456 83.03561128865232) rotate(475.91749095391083)"><path class="outline" fill="#A5ABB6" stroke="none" d="M 25 0.5 L 35.481358821239326 0.5 L 35.481358821239326 -0.5 L 25 -0.5 Z M 73.48135882123933 0.5 L 83.96271764247865 0.5 L 83.96271764247865 3.5 L 90.96271764247865 0 L 83.96271764247865 -3.5 L 83.96271764247865 -0.5 L 73.48135882123933 -0.5 Z"/><text text-anchor="middle" pointer-events="none" font-size="8px" fill="#000000" x="54.481358821239326" y="3" transform="rotate(180 54.481358821239326 0)" font-family="sans-serif">个人属性</text></g><g class="relationship" transform="translate(277.6837492068555 92.06993048068922) rotate(362.40022986561166)"><path class="outline" fill="#A5ABB6" stroke="none" d="M 25 0.5 L 62.066412280638886 0.5 L 62.066412280638886 -0.5 L 25 -0.5 Z M 100.06641228063889 0.5 L 137.13282456127777 0.5 L 137.13282456127777 3.5 L 144.13282456127777 0 L 137.13282456127777 -3.5 L 137.13282456127777 -0.5 L 100.06641228063889 -0.5 Z"/><text text-anchor="middle" pointer-events="none" font-size="8px" fill="#000000" x="81.06641228063889" y="3" font-family="sans-serif">个人属性</text></g><g class="relationship" transform="translate(263.9242406784909 28.096636763440657) rotate(342.3934371353399)"><path class="outline" fill="#A5ABB6" stroke="none" d="M 25 0.5 L 61.990536907867806 0.5 L 61.990536907867806 -0.5 L 25 -0.5 Z M 99.9905369078678 0.5 L 136.9810738157356 0.5 L 136.9810738157356 3.5 L 143.9810738157356 0 L 136.9810738157356 -3.5 L 136.9810738157356 -0.5 L 99.9905369078678 -0.5 Z"/><text text-anchor="middle" pointer-events="none" font-size="8px" fill="#000000" x="80.9905369078678" y="3" font-family="sans-serif">个人属性</text></g><g class="relationship" transform="translate(227.80605641965238 206.53983717340472) rotate(402.05131897539223)"><path class="outline" fill="#A5ABB6" stroke="none" d="M 25 0.5 L 62.50171246676338 0.5 L 62.50171246676338 -0.5 L 25 -0.5 Z M 100.50171246676338 0.5 L 138.00342493352676 0.5 L 138.00342493352676 3.5 L 145.00342493352676 0 L 138.00342493352676 -3.5 L 138.00342493352676 -0.5 L 100.50171246676338 -0.5 Z"/><text text-anchor="middle" pointer-events="none" font-size="8px" fill="#000000" x="81.50171246676338" y="3" font-family="sans-serif">个人属性</text></g><g class="relationship" transform="translate(261.0106887877689 153.66594843818527) rotate(381.42395910849007)"><path class="outline" fill="#A5ABB6" stroke="none" d="M 25 0.5 L 62.63112765993239 0.5 L 62.63112765993239 -0.5 L 25 -0.5 Z M 100.63112765993239 0.5 L 138.26225531986478 0.5 L 138.26225531986478 3.5 L 145.26225531986478 0 L 138.26225531986478 -3.5 L 138.26225531986478 -0.5 L 100.63112765993239 -0.5 Z"/><text text-anchor="middle" pointer-events="none" font-size="8px" fill="#000000" x="81.63112765993239" y="3" font-family="sans-serif">个人属性</text></g><g class="relationship" transform="translate(-52.26081168982552 -47.83025063386672) rotate(195.7998236874078)"><path class="outline" fill="#A5ABB6" stroke="none" d="M 25 0.5 L 54.99926587657535 0.5 L 54.99926587657535 -0.5 L 25 -0.5 Z M 92.99926587657535 0.5 L 122.9985317531507 0.5 L 122.9985317531507 3.5 L 129.9985317531507 0 L 122.9985317531507 -3.5 L 122.9985317531507 -0.5 L 92.99926587657535 -0.5 Z"/><text text-anchor="middle" pointer-events="none" font-size="8px" fill="#000000" x="73.99926587657535" y="3" transform="rotate(180 73.99926587657535 0)" font-family="sans-serif">个人属性</text></g><g class="relationship" transform="translate(-52.26081168982552 -47.83025063386672) rotate(248.3657059438351)"><path class="outline" fill="#A5ABB6" stroke="none" d="M 25 0.5 L 54.28197168991919 0.5 L 54.28197168991919 -0.5 L 25 -0.5 Z M 92.28197168991919 0.5 L 121.56394337983838 0.5 L 121.56394337983838 3.5 L 128.56394337983838 0 L 121.56394337983838 -3.5 L 121.56394337983838 -0.5 L 92.28197168991919 -0.5 Z"/><text text-anchor="middle" pointer-events="none" font-size="8px" fill="#000000" x="73.28197168991919" y="3" transform="rotate(180 73.28197168991919 0)" font-family="sans-serif">个人属性</text></g><g class="relationship" transform="translate(-52.26081168982552 -47.83025063386672) rotate(221.98520658247241)"><path class="outline" fill="#A5ABB6" stroke="none" d="M 25 0.5 L 55.16505362853185 0.5 L 55.16505362853185 -0.5 L 25 -0.5 Z M 93.16505362853185 0.5 L 123.3301072570637 0.5 L 123.3301072570637 3.5 L 130.3301072570637 0 L 123.3301072570637 -3.5 L 123.3301072570637 -0.5 L 93.16505362853185 -0.5 Z"/><text text-anchor="middle" pointer-events="none" font-size="8px" fill="#000000" x="74.16505362853185" y="3" transform="rotate(180 74.16505362853185 0)" font-family="sans-serif">个人属性</text></g><g class="relationship" transform="translate(235.12378690174947 -30.40390945478505) rotate(321.72796230675146)"><path class="outline" fill="#A5ABB6" stroke="none" d="M 25 0.5 L 61.82662014660379 0.5 L 61.82662014660379 -0.5 L 25 -0.5 Z M 99.82662014660379 0.5 L 136.65324029320757 0.5 L 136.65324029320757 3.5 L 143.65324029320757 0 L 136.65324029320757 -3.5 L 136.65324029320757 -0.5 L 99.82662014660379 -0.5 Z"/><text text-anchor="middle" pointer-events="none" font-size="8px" fill="#000000" x="80.82662014660379" y="3" font-family="sans-serif">个人属性</text></g><g class="relationship" transform="translate(-88.98706341568521 53.64426530891385) rotate(184.9820439827866)"><path class="outline" fill="#A5ABB6" stroke="none" d="M 25 0.5 L 60.751124932340815 0.5 L 60.751124932340815 -0.5 L 25 -0.5 Z M 98.75112493234082 0.5 L 134.50224986468163 0.5 L 134.50224986468163 3.5 L 141.50224986468163 0 L 134.50224986468163 -3.5 L 134.50224986468163 -0.5 L 98.75112493234082 -0.5 Z"/><text text-anchor="middle" pointer-events="none" font-size="8px" fill="#000000" x="79.75112493234082" y="3" transform="rotate(180 79.75112493234082 0)" font-family="sans-serif">个人属性</text></g><g class="relationship" transform="translate(40.46524793981446 -89.61928440074186) rotate(259.29505588807865)"><path class="outline" fill="#A5ABB6" stroke="none" d="M 25 0.5 L 60.583192011796356 0.5 L 60.583192011796356 -0.5 L 25 -0.5 Z M 98.58319201179636 0.5 L 134.1663840235927 0.5 L 134.1663840235927 3.5 L 141.1663840235927 0 L 134.1663840235927 -3.5 L 134.1663840235927 -0.5 L 98.58319201179636 -0.5 Z"/><text text-anchor="middle" pointer-events="none" font-size="8px" fill="#000000" x="79.58319201179636" y="3" transform="rotate(180 79.58319201179636 0)" font-family="sans-serif">个人属性</text></g><g class="relationship" transform="translate(110.56143037525216 -94.77265809660415) rotate(279.24438861942815)"><path class="outline" fill="#A5ABB6" stroke="none" d="M 25 0.5 L 60.70119003928053 0.5 L 60.70119003928053 -0.5 L 25 -0.5 Z M 98.70119003928053 0.5 L 134.40238007856107 0.5 L 134.40238007856107 3.5 L 141.40238007856107 0 L 134.40238007856107 -3.5 L 134.40238007856107 -0.5 L 98.70119003928053 -0.5 Z"/><text text-anchor="middle" pointer-events="none" font-size="8px" fill="#000000" x="79.70119003928053" y="3" font-family="sans-serif">个人属性</text></g><g class="relationship" transform="translate(-60.0540625788055 194.10895760362277) rotate(501.7597864575037)"><path class="outline" fill="#A5ABB6" stroke="none" d="M 25 0.5 L 62.13018714750717 0.5 L 62.13018714750717 -0.5 L 25 -0.5 Z M 100.13018714750717 0.5 L 137.26037429501434 0.5 L 137.26037429501434 3.5 L 144.26037429501434 0 L 137.26037429501434 -3.5 L 137.26037429501434 -0.5 L 100.13018714750717 -0.5 Z"/><text text-anchor="middle" pointer-events="none" font-size="8px" fill="#000000" x="81.13018714750717" y="3" transform="rotate(180 81.13018714750717 0)" font-family="sans-serif">个人属性</text></g><g class="relationship" transform="translate(59.34197493820558 263.4486690445517) rotate(459.82977613425396)"><path class="outline" fill="#A5ABB6" stroke="none" d="M 25 0.5 L 62.01879362166082 0.5 L 62.01879362166082 -0.5 L 25 -0.5 Z M 100.01879362166082 0.5 L 137.03758724332164 0.5 L 137.03758724332164 3.5 L 144.03758724332164 0 L 137.03758724332164 -3.5 L 137.03758724332164 -0.5 L 100.01879362166082 -0.5 Z"/><text text-anchor="middle" pointer-events="none" font-size="8px" fill="#000000" x="81.01879362166082" y="3" transform="rotate(180 81.01879362166082 0)" font-family="sans-serif">个人属性</text></g><g class="relationship" transform="translate(-91.41337013734766 126.80666175569642) rotate(524.0946203688037)"><path class="outline" fill="#A5ABB6" stroke="none" d="M 25 0.5 L 61.05829953222259 0.5 L 61.05829953222259 -0.5 L 25 -0.5 Z M 99.05829953222259 0.5 L 135.11659906444518 0.5 L 135.11659906444518 3.5 L 142.11659906444518 0 L 135.11659906444518 -3.5 L 135.11659906444518 -0.5 L 99.05829953222259 -0.5 Z"/><text text-anchor="middle" pointer-events="none" font-size="8px" fill="#000000" x="80.05829953222259" y="3" transform="rotate(180 80.05829953222259 0)" font-family="sans-serif">个人属性</text></g><g class="relationship" transform="translate(-6.785904855191176 245.60900885492168) rotate(479.3190264618267)"><path class="outline" fill="#A5ABB6" stroke="none" d="M 25 0.5 L 62.41417216027355 0.5 L 62.41417216027355 -0.5 L 25 -0.5 Z M 100.41417216027355 0.5 L 137.8283443205471 0.5 L 137.8283443205471 3.5 L 144.8283443205471 0 L 137.8283443205471 -3.5 L 137.8283443205471 -0.5 L 100.41417216027355 -0.5 Z"/><text text-anchor="middle" pointer-events="none" font-size="8px" fill="#000000" x="81.41417216027355" y="3" transform="rotate(180 81.41417216027355 0)" font-family="sans-serif">个人属性</text></g></g><g class="layer nodes"><g class="node" transform="translate(181.22544556598382,-81.84558633262439)"><circle class="outline" cx="0" cy="0" r="25" fill="#57C7E3" stroke="#23b3d7" stroke-width="2px"/><text text-anchor="middle" pointer-events="none" font-family="sans-serif" dy="1.5625" font-size="25" fill="#FFFFFF"/><text text-anchor="middle" pointer-events="none" y="5" font-size="10px" fill="#FFFFFF" font-family="sans-serif"> 347403…</text></g><g class="node" transform="translate(119.44505721818571,262.1919636617924)"><circle class="outline" cx="0" cy="0" r="25" fill="#57C7E3" stroke="#23b3d7" stroke-width="2px"/><text text-anchor="middle" pointer-events="none" font-family="sans-serif" dy="1.5625" font-size="25" fill="#FFFFFF"/><text text-anchor="middle" pointer-events="none" y="5" font-size="10px" fill="#FFFFFF" font-family="sans-serif"> 10000…</text></g><g class="node" transform="translate(144.64426317069356,431.160258478267)"><circle class="outline" cx="0" cy="0" r="25" fill="#F16667" stroke="#eb2728" stroke-width="2px"/><text text-anchor="middle" pointer-events="none" font-family="sans-serif" dy="1.5625" font-size="25" fill="#FFFFFF"/><text text-anchor="middle" pointer-events="none" y="5" font-size="10px" fill="#FFFFFF" font-family="sans-serif"> QQ邮箱…</text></g><g class="node" transform="translate(137.293290702143,-259.01382144877203)"><circle class="outline" cx="0" cy="0" r="25" fill="#F16667" stroke="#eb2728" stroke-width="2px"/><text text-anchor="middle" pointer-events="none" font-family="sans-serif" dy="1.5625" font-size="25" fill="#FFFFFF"/><text text-anchor="middle" pointer-events="none" font-family="sans-serif" dy="1.5625" font-size="25" fill="#FFFFFF"/><text text-anchor="middle" pointer-events="none" y="0" font-size="10px" fill="#FFFFFF" font-family="sans-serif"> V2rayPro</text><text text-anchor="middle" pointer-events="none" y="10" font-size="10px" fill="#FFFFFF" font-family="sans-serif"> 技术支持</text></g><g class="node" transform="translate(-20.502979300585206,29.171904578364945)"><circle class="outline" cx="0" cy="0" r="25" fill="#F16667" stroke="#eb2728" stroke-width="2px"/><text text-anchor="middle" pointer-events="none" font-family="sans-serif" dy="1.5625" font-size="25" fill="#FFFFFF"/><text text-anchor="middle" pointer-events="none" y="5" font-size="10px" fill="#FFFFFF" font-family="sans-serif"> Rossi</text></g><g class="node" transform="translate(265.8622920605414,-227.47329091510392)"><circle class="outline" cx="0" cy="0" r="25" fill="#F16667" stroke="#eb2728" stroke-width="2px"/><text text-anchor="middle" pointer-events="none" font-family="sans-serif" dy="1.5625" font-size="25" fill="#FFFFFF"/><text text-anchor="middle" pointer-events="none" y="5" font-size="10px" fill="#FFFFFF" font-family="sans-serif"> free</text></g><g class="node" transform="translate(354.04128310411005,320.40744465267363)"><circle class="outline" cx="0" cy="0" r="25" fill="#F16667" stroke="#eb2728" stroke-width="2px"/><text text-anchor="middle" pointer-events="none" font-family="sans-serif" dy="1.5625" font-size="25" fill="#FFFFFF"/><text text-anchor="middle" pointer-events="none" y="5" font-size="10px" fill="#FFFFFF" font-family="sans-serif"> CCF ADL</text></g><g class="node" transform="translate(180.49447316985587,248.3758531647937)"><circle class="outline" cx="0" cy="0" r="25" fill="#57C7E3" stroke="#23b3d7" stroke-width="2px"/><text text-anchor="middle" pointer-events="none" font-family="sans-serif" dy="1.5625" font-size="25" fill="#FFFFFF"/><text text-anchor="middle" pointer-events="none" y="5" font-size="10px" fill="#FFFFFF" font-family="sans-serif"> devrel…</text></g><g class="node" transform="translate(264.07316235940993,398.10310578170254)"><circle class="outline" cx="0" cy="0" r="25" fill="#F16667" stroke="#eb2728" stroke-width="2px"/><text text-anchor="middle" pointer-events="none" font-family="sans-serif" dy="1.5625" font-size="25" fill="#FFFFFF"/><text text-anchor="middle" pointer-events="none" font-family="sans-serif" dy="1.5625" font-size="25" fill="#FFFFFF"/><text text-anchor="middle" pointer-events="none" y="0" font-size="10px" fill="#FFFFFF" font-family="sans-serif"> Ryan</text><text text-anchor="middle" pointer-events="none" y="10" font-size="10px" fill="#FFFFFF" font-family="sans-serif"> Boyd</text></g><g class="node" transform="translate(156.69367569601064,171.14985861311382)"><circle class="outline" cx="0" cy="0" r="25" fill="#57C7E3" stroke="#23b3d7" stroke-width="2px"/><text text-anchor="middle" pointer-events="none" font-family="sans-serif" dy="1.5625" font-size="25" fill="#FFFFFF"/><text text-anchor="middle" pointer-events="none" y="5" font-size="10px" fill="#FFFFFF" font-family="sans-serif"> gre@m…</text></g><g class="node" transform="translate(90.96085095314456,83.03561128865232)"><circle class="outline" cx="0" cy="0" r="25" fill="#57C7E3" stroke="#23b3d7" stroke-width="2px"/><text text-anchor="middle" pointer-events="none" font-family="sans-serif" dy="1.5625" font-size="25" fill="#FFFFFF"/><text text-anchor="middle" pointer-events="none" y="5" font-size="10px" fill="#FFFFFF" font-family="sans-serif"> 970504…</text></g><g class="node" transform="translate(40.27628607938286,187.33530815583728)"><circle class="outline" cx="0" cy="0" r="25" fill="#F16667" stroke="#eb2728" stroke-width="2px"/><text text-anchor="middle" pointer-events="none" font-family="sans-serif" dy="1.5625" font-size="25" fill="#FFFFFF"/><text text-anchor="middle" pointer-events="none" y="5" font-size="10px" fill="#FFFFFF" font-family="sans-serif"> roosi Ren</text></g><g class="node" transform="translate(202.25309682533666,79.072757022186)"><circle class="outline" cx="0" cy="0" r="25" fill="#F16667" stroke="#eb2728" stroke-width="2px"/><text text-anchor="middle" pointer-events="none" font-family="sans-serif" dy="1.5625" font-size="25" fill="#FFFFFF"/><text text-anchor="middle" pointer-events="none" y="5" font-size="10px" fill="#FFFFFF" font-family="sans-serif"> 970504…</text></g><g class="node" transform="translate(277.6837492068555,92.06993048068922)"><circle class="outline" cx="0" cy="0" r="25" fill="#57C7E3" stroke="#23b3d7" stroke-width="2px"/><text text-anchor="middle" pointer-events="none" font-family="sans-serif" dy="1.5625" font-size="25" fill="#FFFFFF"/><text text-anchor="middle" pointer-events="none" y="5" font-size="10px" fill="#FFFFFF" font-family="sans-serif"> zhuleji…</text></g><g class="node" transform="translate(446.66818712921713,99.15315602696965)"><circle class="outline" cx="0" cy="0" r="25" fill="#F16667" stroke="#eb2728" stroke-width="2px"/><text text-anchor="middle" pointer-events="none" font-family="sans-serif" dy="1.5625" font-size="25" fill="#FFFFFF"/><text text-anchor="middle" pointer-events="none" y="5" font-size="10px" fill="#FFFFFF" font-family="sans-serif"> zhuleji…</text></g><g class="node" transform="translate(-19.477282685136558,122.2490930787923)"><circle class="outline" cx="0" cy="0" r="25" fill="#F16667" stroke="#eb2728" stroke-width="2px"/><text text-anchor="middle" pointer-events="none" font-family="sans-serif" dy="1.5625" font-size="25" fill="#FFFFFF"/><text text-anchor="middle" pointer-events="none" y="5" font-size="10px" fill="#FFFFFF" font-family="sans-serif"> 970504…</text></g><g class="node" transform="translate(263.9242406784909,28.096636763440657)"><circle class="outline" cx="0" cy="0" r="25" fill="#57C7E3" stroke="#23b3d7" stroke-width="2px"/><text text-anchor="middle" pointer-events="none" font-family="sans-serif" dy="1.5625" font-size="25" fill="#FFFFFF"/><text text-anchor="middle" pointer-events="none" y="5" font-size="10px" fill="#FFFFFF" font-family="sans-serif"> poster…</text></g><g class="node" transform="translate(424.9895696357639,-23.016601402464172)"><circle class="outline" cx="0" cy="0" r="25" fill="#F16667" stroke="#eb2728" stroke-width="2px"/><text text-anchor="middle" pointer-events="none" font-family="sans-serif" dy="1.5625" font-size="25" fill="#FFFFFF"/><text text-anchor="middle" pointer-events="none" y="5" font-size="10px" fill="#FFFFFF" font-family="sans-serif"> 花呗</text></g><g class="node" transform="translate(227.80605641965238,206.53983717340472)"><circle class="outline" cx="0" cy="0" r="25" fill="#57C7E3" stroke="#23b3d7" stroke-width="2px"/><text text-anchor="middle" pointer-events="none" font-family="sans-serif" dy="1.5625" font-size="25" fill="#FFFFFF"/><text text-anchor="middle" pointer-events="none" y="5" font-size="10px" fill="#FFFFFF" font-family="sans-serif"> adl@m…</text></g><g class="node" transform="translate(261.0106887877689,153.66594843818527)"><circle class="outline" cx="0" cy="0" r="25" fill="#57C7E3" stroke="#23b3d7" stroke-width="2px"/><text text-anchor="middle" pointer-events="none" font-family="sans-serif" dy="1.5625" font-size="25" fill="#FFFFFF"/><text text-anchor="middle" pointer-events="none" y="5" font-size="10px" fill="#FFFFFF" font-family="sans-serif"> nikeoffi…</text></g><g class="node" transform="translate(419.508359551952,215.8569763195078)"><circle class="outline" cx="0" cy="0" r="25" fill="#F16667" stroke="#eb2728" stroke-width="2px"/><text text-anchor="middle" pointer-events="none" font-family="sans-serif" dy="1.5625" font-size="25" fill="#FFFFFF"/><text text-anchor="middle" pointer-events="none" y="5" font-size="10px" fill="#FFFFFF" font-family="sans-serif"> Nike</text></g><g class="node" transform="translate(-52.26081168982552,-47.83025063386672)"><circle class="outline" cx="0" cy="0" r="25" fill="#57C7E3" stroke="#23b3d7" stroke-width="2px"/><text text-anchor="middle" pointer-events="none" font-family="sans-serif" dy="1.5625" font-size="25" fill="#FFFFFF"/><text text-anchor="middle" pointer-events="none" y="5" font-size="10px" fill="#FFFFFF" font-family="sans-serif"> noreply…</text></g><g class="node" transform="translate(-167.72040895943968,-151.7365719951266)"><circle class="outline" cx="0" cy="0" r="25" fill="#F16667" stroke="#eb2728" stroke-width="2px"/><text text-anchor="middle" pointer-events="none" font-family="sans-serif" dy="1.5625" font-size="25" fill="#FFFFFF"/><text text-anchor="middle" pointer-events="none" y="5" font-size="10px" fill="#FFFFFF" font-family="sans-serif"> Steam</text></g><g class="node" transform="translate(151.58511510525705,-16.861960657884065)"><circle class="outline" cx="0" cy="0" r="25" fill="#F16667" stroke="#eb2728" stroke-width="2px"/><text text-anchor="middle" pointer-events="none" font-family="sans-serif" dy="1.5625" font-size="25" fill="#FFFFFF"/><text text-anchor="middle" pointer-events="none" y="5" font-size="10px" fill="#FFFFFF" font-family="sans-serif"> Single</text></g><g class="node" transform="translate(235.12378690174947,-30.40390945478505)"><circle class="outline" cx="0" cy="0" r="25" fill="#57C7E3" stroke="#23b3d7" stroke-width="2px"/><text text-anchor="middle" pointer-events="none" font-family="sans-serif" dy="1.5625" font-size="25" fill="#FFFFFF"/><text text-anchor="middle" pointer-events="none" y="5" font-size="10px" fill="#FFFFFF" font-family="sans-serif"> info@t…</text></g><g class="node" transform="translate(367.5298620590721,-134.86704516701533)"><circle class="outline" cx="0" cy="0" r="25" fill="#F16667" stroke="#eb2728" stroke-width="2px"/><text text-anchor="middle" pointer-events="none" font-family="sans-serif" dy="1.5625" font-size="25" fill="#FFFFFF"/><text text-anchor="middle" pointer-events="none" y="5" font-size="10px" fill="#FFFFFF" font-family="sans-serif"> Twitter</text></g><g class="node" transform="translate(-88.98706341568521,53.64426530891385)"><circle class="outline" cx="0" cy="0" r="25" fill="#57C7E3" stroke="#23b3d7" stroke-width="2px"/><text text-anchor="middle" pointer-events="none" font-family="sans-serif" dy="1.5625" font-size="25" fill="#FFFFFF"/><text text-anchor="middle" pointer-events="none" y="5" font-size="10px" fill="#FFFFFF" font-family="sans-serif"> hzdk@…</text></g><g class="node" transform="translate(-254.86026162820394,39.18462061233326)"><circle class="outline" cx="0" cy="0" r="25" fill="#F16667" stroke="#eb2728" stroke-width="2px"/><text text-anchor="middle" pointer-events="none" font-family="sans-serif" dy="1.5625" font-size="25" fill="#FFFFFF"/><text text-anchor="middle" pointer-events="none" y="5" font-size="10px" fill="#FFFFFF" font-family="sans-serif"> 借贝</text></g><g class="node" transform="translate(40.46524793981446,-89.61928440074186)"><circle class="outline" cx="0" cy="0" r="25" fill="#57C7E3" stroke="#23b3d7" stroke-width="2px"/><text text-anchor="middle" pointer-events="none" font-family="sans-serif" dy="1.5625" font-size="25" fill="#FFFFFF"/><text text-anchor="middle" pointer-events="none" y="5" font-size="10px" fill="#FFFFFF" font-family="sans-serif"> rensc1…</text></g><g class="node" transform="translate(9.599608582826864,-252.89383687772911)"><circle class="outline" cx="0" cy="0" r="25" fill="#F16667" stroke="#eb2728" stroke-width="2px"/><text text-anchor="middle" pointer-events="none" font-family="sans-serif" dy="1.5625" font-size="25" fill="#FFFFFF"/><text text-anchor="middle" pointer-events="none" y="5" font-size="10px" fill="#FFFFFF" font-family="sans-serif"> 任帅臣</text></g><g class="node" transform="translate(110.56143037525216,-94.77265809660415)"><circle class="outline" cx="0" cy="0" r="25" fill="#57C7E3" stroke="#23b3d7" stroke-width="2px"/><text text-anchor="middle" pointer-events="none" font-family="sans-serif" dy="1.5625" font-size="25" fill="#FFFFFF"/><text text-anchor="middle" pointer-events="none" y="5" font-size="10px" fill="#FFFFFF" font-family="sans-serif"> no-repl…</text></g><g class="node" transform="translate(-201.4033177812989,-90.03283020416424)"><circle class="outline" cx="0" cy="0" r="25" fill="#F16667" stroke="#eb2728" stroke-width="2px"/><text text-anchor="middle" pointer-events="none" font-family="sans-serif" dy="1.5625" font-size="25" fill="#FFFFFF"/><text text-anchor="middle" pointer-events="none" font-family="sans-serif" dy="1.5625" font-size="25" fill="#FFFFFF"/><text text-anchor="middle" pointer-events="none" y="0" font-size="10px" fill="#FFFFFF" font-family="sans-serif"> Steam</text><text text-anchor="middle" pointer-events="none" y="10" font-size="10px" fill="#FFFFFF" font-family="sans-serif"> Support</text></g><g class="node" transform="translate(36.96256915517084,-20.486855286514825)"><circle class="outline" cx="0" cy="0" r="25" fill="#F16667" stroke="#eb2728" stroke-width="2px"/><text text-anchor="middle" pointer-events="none" font-family="sans-serif" dy="1.5625" font-size="25" fill="#FFFFFF"/><text text-anchor="middle" pointer-events="none" y="5" font-size="10px" fill="#FFFFFF" font-family="sans-serif"> single</text></g><g class="node" transform="translate(-60.0540625788055,194.10895760362277)"><circle class="outline" cx="0" cy="0" r="25" fill="#57C7E3" stroke="#23b3d7" stroke-width="2px"/><text text-anchor="middle" pointer-events="none" font-family="sans-serif" dy="1.5625" font-size="25" fill="#FFFFFF"/><text text-anchor="middle" pointer-events="none" y="5" font-size="10px" fill="#FFFFFF" font-family="sans-serif"> no-repl…</text></g><g class="node" transform="translate(-192.99499672261214,298.87432561930063)"><circle class="outline" cx="0" cy="0" r="25" fill="#F16667" stroke="#eb2728" stroke-width="2px"/><text text-anchor="middle" pointer-events="none" font-family="sans-serif" dy="1.5625" font-size="25" fill="#FFFFFF"/><text text-anchor="middle" pointer-events="none" y="5" font-size="10px" fill="#FFFFFF" font-family="sans-serif"> Coursera</text></g><g class="node" transform="translate(59.34197493820558,263.4486690445517)"><circle class="outline" cx="0" cy="0" r="25" fill="#57C7E3" stroke="#23b3d7" stroke-width="2px"/><text text-anchor="middle" pointer-events="none" font-family="sans-serif" dy="1.5625" font-size="25" fill="#FFFFFF"/><text text-anchor="middle" pointer-events="none" y="5" font-size="10px" fill="#FFFFFF" font-family="sans-serif"> info@n…</text></g><g class="node" transform="translate(-91.41337013734766,126.80666175569642)"><circle class="outline" cx="0" cy="0" r="25" fill="#57C7E3" stroke="#23b3d7" stroke-width="2px"/><text text-anchor="middle" pointer-events="none" font-family="sans-serif" dy="1.5625" font-size="25" fill="#FFFFFF"/><text text-anchor="middle" pointer-events="none" y="5" font-size="10px" fill="#FFFFFF" font-family="sans-serif"> sony@p…</text></g><g class="node" transform="translate(30.48361022985111,430.00466769786703)"><circle class="outline" cx="0" cy="0" r="25" fill="#F16667" stroke="#eb2728" stroke-width="2px"/><text text-anchor="middle" pointer-events="none" font-family="sans-serif" dy="1.5625" font-size="25" fill="#FFFFFF"/><text text-anchor="middle" pointer-events="none" font-family="sans-serif" dy="1.5625" font-size="25" fill="#FFFFFF"/><text text-anchor="middle" pointer-events="none" y="0" font-size="10px" fill="#FFFFFF" font-family="sans-serif"> Neo4j</text><text text-anchor="middle" pointer-events="none" y="10" font-size="10px" fill="#FFFFFF" font-family="sans-serif"> Trial</text></g><g class="node" transform="translate(-6.785904855191176,245.60900885492168)"><circle class="outline" cx="0" cy="0" r="25" fill="#57C7E3" stroke="#23b3d7" stroke-width="2px"/><text text-anchor="middle" pointer-events="none" font-family="sans-serif" dy="1.5625" font-size="25" fill="#FFFFFF"/><text text-anchor="middle" pointer-events="none" y="5" font-size="10px" fill="#FFFFFF" font-family="sans-serif"> lijie@c…</text></g><g class="node" transform="translate(-89.94609270200857,393.68348231993303)"><circle class="outline" cx="0" cy="0" r="25" fill="#F16667" stroke="#eb2728" stroke-width="2px"/><text text-anchor="middle" pointer-events="none" font-family="sans-serif" dy="1.5625" font-size="25" fill="#FFFFFF"/><text text-anchor="middle" pointer-events="none" y="5" font-size="10px" fill="#FFFFFF" font-family="sans-serif"> supter</text></g><g class="node" transform="translate(-252.13200757796324,172.6048851065917)"><circle class="outline" cx="0" cy="0" r="25" fill="#F16667" stroke="#eb2728" stroke-width="2px"/><text text-anchor="middle" pointer-events="none" font-family="sans-serif" dy="1.5625" font-size="25" fill="#FFFFFF"/><text text-anchor="middle" pointer-events="none" y="5" font-size="10px" fill="#FFFFFF" font-family="sans-serif"> 索尼（…</text></g><g class="node" transform="translate(-108.87691974970434,-190.57653259777052)"><circle class="outline" cx="0" cy="0" r="25" fill="#F16667" stroke="#eb2728" stroke-width="2px"/><text text-anchor="middle" pointer-events="none" font-family="sans-serif" dy="1.5625" font-size="25" fill="#FFFFFF"/><text text-anchor="middle" pointer-events="none" font-family="sans-serif" dy="1.5625" font-size="25" fill="#FFFFFF"/><text text-anchor="middle" pointer-events="none" y="0" font-size="10px" fill="#FFFFFF" font-family="sans-serif"> Steam</text><text text-anchor="middle" pointer-events="none" y="10" font-size="10px" fill="#FFFFFF" font-family="sans-serif"> 客服</text></g></g></svg>